<?xml version="1.0" standalone="no"?>
<!DOCTYPE svg PUBLIC "-//W3C//DTD SVG 20010904//EN"
 "http://www.w3.org/TR/2001/REC-SVG-20010904/DTD/svg10.dtd">
<svg version="1.0" xmlns="http://www.w3.org/2000/svg"
 width="348.000000pt" height="348.000000pt" viewBox="0 0 348.000000 348.000000"
 preserveAspectRatio="xMidYMid meet">
<metadata>
Created by potrace 1.14, written by Peter Selinger 2001-2017
</metadata>
<g transform="translate(0.000000,348.000000) scale(0.100000,-0.100000)"
fill="#000000" stroke="none">
<path d="M945 3370 c-38 -5 -133 -15 -210 -24 -77 -8 -172 -18 -211 -20 -77
-6 -156 -21 -184 -36 -22 -12 -25 -25 -46 -190 -13 -112 -15 -186 -10 -440 10
-435 23 -782 54 -1435 7 -132 8 -140 28 -143 21 -3 56 -33 110 -94 29 -34 31
-40 37 -151 4 -63 4 -122 1 -130 -3 -8 1 -17 9 -20 14 -5 193 -202 296 -327
30 -36 61 -72 70 -80 24 -23 141 -167 141 -175 0 -3 12 -17 28 -31 l27 -26 5
128 5 129 10 -115 c5 -63 9 -123 9 -132 -1 -31 32 -30 143 2 59 18 169 49 243
70 74 22 221 64 325 95 216 63 695 202 925 269 85 24 163 47 172 51 22 9 28
28 37 118 5 40 11 80 15 89 8 19 13 19 -99 -16 -164 -51 -687 -195 -1145 -314
-428 -112 -482 -124 -492 -114 -9 9 -16 70 -33 277 -8 108 -34 548 -50 875
-34 669 -54 1091 -65 1360 -9 222 -15 287 -26 296 -16 13 -20 59 -4 49 6 -3
10 3 10 14 0 12 -4 21 -10 21 -5 0 -10 5 -10 11 0 5 5 7 11 4 7 -5 9 16 8 64
-1 39 -6 71 -11 71 -5 0 -6 5 -3 10 3 6 2 10 -4 10 -5 0 -15 2 -23 4 -7 2 -44
0 -83 -4z m75 -421 c5 -90 16 -317 25 -504 8 -187 17 -378 20 -425 7 -108 33
-684 39 -855 l5 -130 -9 105 c-31 354 -109 1992 -95 1978 3 -2 9 -78 15 -169z
m97 -2051 c-2 -13 -4 -3 -4 22 0 25 2 35 4 23 2 -13 2 -33 0 -45z"/>
<path d="M1945 3160 c-319 -3 -586 -9 -593 -14 -15 -9 -13 -27 12 -94 11 -28
13 -49 7 -60 -5 -10 -6 -73 -3 -147 l7 -130 5 94 5 94 30 2 c17 1 348 6 737
10 l707 8 8 -29 c10 -37 10 -930 0 -966 -5 -21 -14 -28 -32 -28 -30 0 -77 -18
-86 -32 -4 -6 -29 -14 -55 -19 -27 -4 -112 -19 -189 -33 -157 -29 -486 -76
-705 -101 -80 -9 -192 -23 -250 -30 -61 -7 -110 -9 -116 -4 -7 6 -14 107 -19
291 -4 156 -11 335 -16 398 -7 111 -7 109 -3 -35 2 -82 7 -284 11 -448 7 -349
5 -341 94 -338 69 2 431 44 659 77 351 50 714 125 744 154 30 29 39 164 39
595 0 340 -11 597 -28 646 -2 9 27 37 75 73 44 33 80 63 80 68 0 4 -123 7
-272 6 -150 -2 -534 -5 -853 -8z"/>
<path d="M2396 2799 c3 -6 52 -32 108 -59 192 -92 286 -120 286 -85 0 9 -9 15
-24 15 -33 0 -149 42 -265 96 -97 45 -117 52 -105 33z"/>
<path d="M1862 2690 c-141 -88 -242 -140 -287 -147 -37 -6 -49 -23 -15 -23 35
0 126 40 211 92 46 28 102 61 124 74 55 33 91 62 84 68 -3 3 -56 -26 -117 -64z"/>
<path d="M1383 2600 c0 -25 2 -35 4 -22 2 12 2 32 0 45 -2 12 -4 2 -4 -23z"/>
<path d="M2497 2433 c-10 -3 -17 -12 -15 -21 3 -14 18 -16 97 -17 70 0 95 3
99 14 3 7 -1 17 -9 22 -14 9 -139 10 -172 2z"/>
<path d="M1883 2365 c-95 -26 -170 -75 -114 -75 11 0 40 9 65 19 25 11 61 23
81 27 25 4 35 11 35 25 0 22 1 22 -67 4z"/>
<path d="M1808 1988 c-3 -24 -1 -47 3 -52 5 -6 9 13 9 42 0 63 -6 68 -12 10z"/>
<path d="M2540 2000 c-35 -85 -125 -92 -219 -19 -23 19 -23 19 -52 -21 -77
-106 -198 -116 -287 -23 -45 47 -63 52 -41 11 30 -57 106 -98 180 -98 46 0
114 35 149 78 26 32 33 35 48 25 72 -52 133 -63 180 -34 32 21 72 75 72 99 0
23 -17 12 -30 -18z"/>
<path d="M1717 2003 c-11 -18 -18 -93 -9 -93 5 0 12 21 16 47 6 45 3 63 -7 46z"/>
<path d="M3030 1429 c-19 -5 -145 -33 -280 -63 -278 -62 -300 -74 -39 -21 257
52 359 77 365 86 6 10 2 10 -46 -2z"/>
<path d="M2965 1351 c-63 -16 -193 -47 -360 -86 -104 -23 -26 -16 105 10 69
14 143 30 165 35 22 6 74 17 115 26 77 18 114 35 70 33 -14 0 -56 -9 -95 -18z"/>
<path d="M2435 1300 c-13 -5 -14 -9 -5 -9 8 0 24 4 35 9 13 5 14 9 5 9 -8 0
-24 -4 -35 -9z"/>
<path d="M2960 1283 c-109 -27 -130 -32 -450 -103 -477 -105 -538 -118 -680
-146 -80 -16 -138 -30 -128 -32 15 -3 197 31 413 78 50 11 191 40 315 65 124
25 252 52 285 60 33 7 112 26 175 40 172 39 191 45 185 55 -7 12 1 13 -115
-17z"/>
<path d="M2378 1283 c7 -3 16 -2 19 1 4 3 -2 6 -13 5 -11 0 -14 -3 -6 -6z"/>
<path d="M2278 1263 c7 -3 16 -2 19 1 4 3 -2 6 -13 5 -11 0 -14 -3 -6 -6z"/>
<path d="M2218 1253 c7 -3 16 -2 19 1 4 3 -2 6 -13 5 -11 0 -14 -3 -6 -6z"/>
<path d="M3015 1233 c-115 -31 -490 -118 -765 -178 -521 -114 -561 -123 -567
-129 -9 -9 27 -2 297 56 639 136 1092 236 1099 244 15 14 -21 18 -64 7z"/>
<path d="M2478 1233 c7 -3 16 -2 19 1 4 3 -2 6 -13 5 -11 0 -14 -3 -6 -6z"/>
<path d="M2068 1223 c7 -3 16 -2 19 1 4 3 -2 6 -13 5 -11 0 -14 -3 -6 -6z"/>
<path d="M2378 1213 c7 -3 16 -2 19 1 4 3 -2 6 -13 5 -11 0 -14 -3 -6 -6z"/>
<path d="M2328 1203 c7 -3 16 -2 19 1 4 3 -2 6 -13 5 -11 0 -14 -3 -6 -6z"/>
<path d="M2268 1193 c6 -2 18 -2 25 0 6 3 1 5 -13 5 -14 0 -19 -2 -12 -5z"/>
<path d="M2935 1148 c-60 -16 -207 -51 -325 -79 -118 -27 -233 -54 -255 -59
-22 -6 -130 -30 -240 -55 -110 -25 -227 -52 -260 -59 -33 -8 -85 -20 -115 -27
-30 -7 -50 -14 -44 -16 6 -2 71 10 145 26 308 68 612 135 729 161 211 47 484
111 492 116 13 8 9 24 -4 23 -7 -1 -62 -15 -123 -31z"/>
<path d="M2049 1156 c-2 -3 -85 -21 -183 -40 -161 -32 -216 -46 -175 -46 8 0
99 18 202 39 176 36 228 51 180 51 -11 0 -22 -2 -24 -4z"/>
<path d="M1538 1123 c6 -2 18 -2 25 0 6 3 1 5 -13 5 -14 0 -19 -2 -12 -5z"/>
<path d="M3125 1094 c-22 -8 -87 -26 -145 -40 -58 -14 -127 -31 -155 -39 -27
-8 -90 -23 -140 -35 -49 -11 -106 -25 -125 -31 -19 -5 -89 -23 -155 -38 -66
-16 -210 -52 -320 -79 -220 -56 -233 -59 -584 -138 -134 -30 -253 -54 -264
-54 -16 0 -18 -3 -9 -12 9 -9 50 -2 174 26 301 69 532 123 650 151 98 24 122
26 140 16 19 -10 47 -6 168 23 414 99 527 129 542 143 10 9 75 30 145 47 114
28 128 33 131 54 4 25 1 26 -53 6z"/>
<path d="M347 1053 c-2 -5 -2 -56 2 -115 l6 -108 59 -57 58 -58 -6 108 c-3 60
-9 114 -13 121 -17 29 -102 116 -106 109z"/>
<path d="M3155 970 c3 -5 8 -10 11 -10 2 0 4 5 4 10 0 6 -5 10 -11 10 -5 0 -7
-4 -4 -10z"/>
<path d="M3148 910 c-10 -22 -13 -39 -7 -46 11 -14 1 -24 -23 -24 -27 0 -17
-25 10 -26 33 -2 43 19 40 78 l-3 53 -17 -35z"/>
<path d="M1478 883 c7 -3 16 -2 19 1 4 3 -2 6 -13 5 -11 0 -14 -3 -6 -6z"/>
<path d="M1428 873 c7 -3 16 -2 19 1 4 3 -2 6 -13 5 -11 0 -14 -3 -6 -6z"/>
<path d="M1598 833 c7 -3 16 -2 19 1 4 3 -2 6 -13 5 -11 0 -14 -3 -6 -6z"/>
<path d="M1458 803 c7 -3 16 -2 19 1 4 3 -2 6 -13 5 -11 0 -14 -3 -6 -6z"/>
<path d="M3020 789 c0 -5 -4 -8 -9 -4 -5 3 -12 1 -16 -5 -9 -15 18 -12 41 5
17 13 17 14 2 15 -10 0 -18 -5 -18 -11z"/>
<path d="M2041 634 c0 -11 3 -14 6 -6 3 7 2 16 -1 19 -3 4 -6 -2 -5 -13z"/>
<path d="M1940 615 c0 -2 7 -8 15 -15 12 -10 15 -10 15 2 0 8 -7 15 -15 15 -8
0 -15 -1 -15 -2z"/>
<path d="M1860 588 c0 -4 7 -8 15 -8 8 0 15 4 15 8 0 5 -7 9 -15 9 -8 0 -15
-4 -15 -9z"/>
<path d="M1720 544 c0 -8 5 -12 10 -9 6 4 8 11 5 16 -9 14 -15 11 -15 -7z"/>
<path d="M1487 513 c-24 -4 -28 -9 -25 -31 3 -24 7 -27 38 -24 36 3 52 17 47
42 -2 16 -17 19 -60 13z"/>
</g>
</svg>
